# AST/ASF file generated using VICON BodyLanguage
# -----------------------------------------------
:version 1.10
:name VICON
:units
  mass 1.0
  length 0.45
  angle deg
:documentation
   .ast/.asf automatically generated from VICON data using
   VICON BodyBuilder and BodyLanguage model FoxedUp or BRILLIANT.MOD
:root
   order TX TY TZ RX RY RZ
   axis XYZ
   position 0 0 0  
   orientation 0 0 0 
:bonedata
  begin
     id 1 
     name lhipjoint
     direction 0.567149 -0.783011 0.255413 
     length 2.28399 
     axis 0 0 0  XYZ
  end
  begin
     id 2 
     name lfemur
     direction 0.34202 -0.939693 0  
     length 7.34031  
     axis 0 0 20  XYZ
    dof rx ry rz
    limits (-160.0 20.0)
           (-70.0 70.0)
           (-60.0 70.0)
  end
  begin
     id 3 
     name ltibia
     direction 0.34202 -0.939693 0   
     length 6.9833   
     axis 0 0 20   XYZ
    dof rx
    limits (-10.0 170.0)
  end
  begin
     id 4 
     name lfoot
     direction 0.136498 -0.375025 0.91691   
     length 2.33665   
     axis -90 7.62852e-016 20   XYZ
    dof rx rz
    limits (-45.0 90.0)
           (-70.0 20.0)
  end
  begin
     id 5 
     name ltoes
     direction 1.5367e-011 -4.21617e-011 1   
     length 1.15039   
     axis -90 7.62852e-016 20   XYZ
    dof rx
    limits (-90.0 20.0)
  end
  begin
     id 6 
     name rhipjoint
     direction -0.602854 -0.758518 0.247423   
     length 2.35775  
     axis 0 0 0  XYZ 
  end
  begin
     id 7 
     name rfemur
     direction -0.34202 -0.939693 0   
     length 7.43932   
     axis 0 0 -20   XYZ
    dof rx ry rz
    limits (-160.0 20.0)
           (-70.0 70.0)
           (-70.0 60.0)
  end
  begin
     id 8 
     name rtibia
     direction -0.34202 -0.939693 0   
     length 7.11893   
     axis 0 0 -20   XYZ
    dof rx
    limits (-10.0 170.0)
 end
 begin
     id 9 
     name rfoot
     direction -0.131771 -0.362037 0.922803   
     length 2.53019  
     axis -90 -7.62852e-016 -20   XYZ
    dof rx rz
    limits (-45.0 90.0)
           (-20.0 70.0)
  end
  begin
     id 10 
     name rtoes
     direction -1.53733e-011 -4.21932e-011 1   
     length 1.24596   
     axis -90 -7.62852e-016 -20   XYZ
    dof rx
    limits (-90.0 20.0)
  end
  begin
     id 11 
     name lowerback
     direction 0.0235427 0.999023 -0.0374125   
     length 2.21768   
     axis 0 0 0   XYZ
    dof rx ry rz
    limits (-20.0 45.0)
           (-30.0 30.0)
           (-30.0 30.0)
  end
  begin
     id 12 
     name upperback
     direction 0.0302156 0.996818 -0.073759   
     length 2.20352   
     axis 0 0 0   XYZ
    dof rx ry rz
    limits (-20.0 45.0)
           (-30.0 30.0)
           (-30.0 30.0)
  end
  begin
     id 13 
     name thorax
     direction 0.0187169 0.998235 -0.0563532   
     length 2.22103   
     axis 0 0 0   XYZ
    dof rx ry rz
    limits (-20.0 45.0)
           (-30.0 30.0)
           (-30.0 30.0)
  end
  begin
     id 14 
     name lowerneck
     direction -0.119528 0.987423 0.103481   
     length 1.72948   
     axis 0 0 0   XYZ
    dof rx ry rz
    limits (-20.0 45.0)
           (-30.0 30.0)
           (-30.0 30.0)
  end
  begin
     id 15 
     name upperneck
     direction 0.248049 0.963095 -0.104496   
     length 1.74979   
     axis 0 0 0   XYZ
    dof rx ry rz
    limits (-20.0 45.0)
           (-30.0 30.0)
           (-30.0 30.0)
  end
  begin
     id 16
     name head
     direction 0.0903589 0.994284 -0.056876  
     length 1.78268  
     axis 0 0 0   XYZ
    dof rx ry rz
    limits (-20.0 45.0)
           (-30.0 30.0)
           (-30.0 30.0)
  end
  begin
     id 17 
     name lclavicle
     direction 0.946008 0.242039 -0.215608  
     length 3.80783  
     axis 0 0 0   XYZ
    dof ry rz
    limits (-20.0 10.0)
           (0.0 20.0)
  end
  begin
     id 18 
     name lhumerus
     direction 1 -4.48991e-011 -2.25695e-027   
     length 4.83125   
     axis 180 -30 -90   XYZ
    dof rx ry rz
    limits (-60.0 90.0)
           (-90.0 90.0)
           (-90.0 90.0)
  end
  begin
     id 19
     name lradius
     direction 0.999991 0.00366712 -0.00211721   
     length 3.00391   
     axis 180 -30 -90   XYZ
    dof rx
    limits (-10.0 170.0)
  end
  begin
     id 20
     name lwrist
     direction 0.999991 0.00393016 -0.00141978   
     length 1.50195   
     axis -1.00488e-014 90 90   XYZ
    dof ry
    limits (-180.0 0.0)
 end
  begin
     id 21 
     name lhand
     direction 1 -4.49123e-011 2.72098e-026   
     length 1.2717   
     axis -1.73687e-014 90 90   XYZ
    dof rx rz
    limits (-90.0 90.0)
           (-45.0 45.0)
  end
  begin
     id 22 
     name lfingers
     direction 1 -4.48678e-011 5.4479e-026   
     length 1.02528   
     axis -3.47372e-014 90 90   XYZ
    dof rx
    limits (0.0 90.0)
  end
  begin
     id 23
     name lthumb
     direction 0.707107 -6.34851e-011 0.707107   
     length 1.4721   
     axis -90 45 -1.62303e-014   XYZ
    dof rx rz
    limits (-45.0 45.0)
           (-45.0 45.0)
  end
  begin
     id 24 
     name rclavicle
     direction -0.981723 0.189447 -0.0181673   
     length 3.74989  
     axis 0 0 0   XYZ 
    dof ry rz
    limits (-10.0 20.0)
           (-20.0 0.0)
  end
  begin
     id 25 
     name rhumerus
     direction -1 -4.48985e-011 2.38206e-027  
     length 4.61118   
     axis 180 30 90   XYZ
    dof rx ry rz
    limits (-90.0 60.0)
           (-90.0 90.0)
           (-90.0 90.0)
  end
  begin
     id 26 
     name rradius
     direction -1 -4.48977e-011 7.41019e-027   
     length 2.91491   
     axis 180 30 90   XYZ
    dof rx
    limits (-10.0 170.0)
  end
  begin
     id 27 
     name rwrist
     direction -1 -4.48549e-011 1.3624e-026   
     length 1.45745   
     axis -1.00488e-014 -90 -90   XYZ
    dof ry
    limits (-180.0 0.0)
  end
  begin
     id 28
     name rhand
     direction -1 -4.49107e-011 2.72109e-026   
     length 1.30769   
     axis -1.73687e-014 -90 -90   XYZ
    dof rx rz
    limits (-90.0 90.0)
           (-45.0 45.0)
  end
  begin
     id 29
     name rfingers
     direction -1 -4.48919e-011 5.44468e-026   
     length 1.05429   
     axis -3.47372e-014 -90 -90   XYZ
    dof rx
    limits (0.0 90.0)
  end
  begin
     id 30
     name rthumb
     direction -0.707107 -6.35315e-011 0.707107   
     length 1.51376   
     axis -90 -45 1.62303e-014   XYZ
    dof rx rz
    limits (-45.0 45.0)
           (-45.0 45.0)
  end
:hierarchy
  begin
    root lhipjoint rhipjoint lowerback
    lhipjoint lfemur
    lfemur ltibia
    ltibia lfoot
    lfoot ltoes
    rhipjoint rfemur
    rfemur rtibia
    rtibia rfoot
    rfoot rtoes
    lowerback upperback
    upperback thorax
    thorax lowerneck lclavicle rclavicle
    lowerneck upperneck
    upperneck head
    lclavicle lhumerus
    lhumerus lradius
    lradius lwrist
    lwrist lhand lthumb
    lhand lfingers
    rclavicle rhumerus
    rhumerus rradius
    rradius rwrist
    rwrist rhand rthumb
    rhand rfingers
  end

#!OML:ASF X:\für Bonn\!DataBase\2005_08_11_Bastian_Final\c3d\Bastian.ASF
:FULLY-SPECIFIED
:DEGREES
16
root 1.85863 16.6796 0.465028 170.389 -4.76063 -174.851
lowerback 14.6868 -2.31198 2.50246
upperback 3.65651 -3.10535 1.94391
thorax -4.36315 -1.76839 1.21036
lowerneck -11.8498 -7.3737 -7.17842
upperneck -0.591901 -8.90334 9.63654
head 2.49561 -3.98232 3.53756
rclavicle -1.78782e-014 -1.88845e-015
rhumerus 74.8635 20.2856 -7.09359
rradius 38.9831
rwrist -48.553
rhand -41.0739 -1.66313
rfingers 7.12502
rthumb -14.0028 -31.1715
lclavicle -1.78782e-014 -1.88845e-015
lhumerus 63.7289 -22.5445 -2.87666
lradius 31.5592
lwrist 5.95367
lhand -41.4915 10.9984
lfingers 7.12502
lthumb -14.4052 40.4785
rfemur -13.2695 -7.07704 27.7773
rtibia 50.8008
rfoot -24.3819 -6.81977
rtoes -2.12803
lfemur -13.099 1.82358 -13.2103
ltibia 50.1746
lfoot -21.7462 -10.7706
ltoes -9.86437
17
root 1.85936 16.5799 0.479499 170.24 -4.84555 -174.782
lowerback 15.2675 -2.3177 2.60177
upperback 3.68531 -3.09501 1.94065
thorax -4.65124 -1.77257 1.17993
lowerneck -11.7913 -7.40993 -7.18073
upperneck -0.739265 -8.94062 9.68576
head 2.44823 -3.99931 3.55413
rclavicle -5.09075e-015 2.18166e-014
rhumerus 74.9428 19.7449 -6.45245
rradius 39.3052
rwrist -49.5156
rhand -41.4088 -1.46069
rfingers 7.12502
rthumb -14.3255 -30.9465
lclavicle -5.09075e-015 2.18166e-014
lhumerus 63.4609 -21.9906 -2.46338
lradius 31.9258
lwrist 5.74625
lhand -41.5429 10.6884
lfingers 7.12502
lthumb -14.4548 40.1649
rfemur -14.0658 -7.57953 27.7686
rtibia 52.4392
rfoot -25.1123 -6.62873
rtoes -2.40296
lfemur -13.9288 1.96177 -13.1124
ltibia 51.9908
lfoot -22.5485 -10.7363
ltoes -8.4043
18
root 1.85928 16.4729 0.49431 170.109 -4.93718 -174.688
lowerback 15.816 -2.33674 2.72666
upperback 3.72047 -3.09916 1.94432
thorax -4.91531 -1.78466 1.14334
lowerneck -11.7245 -7.43541 -7.18626
upperneck -0.935437 -8.95795 9.75035
head 2.38442 -4.00557 3.57851
rclavicle 1.54897e-014 9.21864e-015
rhumerus 75.0161 19.1777 -5.84527
rradius 39.6415
rwrist -50.4175
rhand -41.7359 -1.33975
rfingers 7.12502
rthumb -14.6407 -30.8029
lclavicle 1.54897e-014 9.21864e-015
lhumerus 63.172 -21.4103 -2.03014
lradius 32.2733
lwrist 5.36745
lhand -41.5983 10.5324
lfingers 7.12502
lthumb -14.5081 40.0051
rfemur -14.9166 -8.0191 27.8066
rtibia 54.1447
rfoot -25.818 -6.55221
rtoes -2.71648
lfemur -14.8179 2.08508 -12.994
ltibia 53.8787
lfoot -23.4102 -10.5626
ltoes -7.42344
19
root 1.85986 16.3584 0.508563 169.988 -5.05142 -174.617
lowerback 16.3559 -2.35552 2.82735
upperback 3.75435 -3.10546 1.94597
thorax -5.1745 -1.7975 1.11841
lowerneck -11.7447 -7.47227 -7.16192
upperneck -1.0542 -8.99403 9.76015
head 2.35449 -4.02031 3.57646
rclavicle 3.10601e-017 1.75427e-014
rhumerus 75.0222 18.6066 -5.2722
rradius 40.001
rwrist -51.245
rhand -42.0692 -1.19888
rfingers 7.12502
rthumb -14.9618 -30.6384
lclavicle 3.10601e-017 1.75427e-014
lhumerus 62.8676 -20.7876 -1.38204
lradius 32.5382
lwrist 4.6993
lhand -41.5831 10.4505
lfingers 7.12502
lthumb -14.4935 39.9243
rfemur -15.8074 -8.38845 27.834
rtibia 55.9272
rfoot -26.5955 -6.49873
rtoes -2.87515
lfemur -15.7624 2.18004 -12.9063
ltibia 55.8402
lfoot -24.3132 -10.2941
ltoes -6.74294
20
root 1.86103 16.2355 0.52211 169.877 -5.19096 -174.546
lowerback 16.873 -2.38703 2.91946
upperback 3.78834 -3.1295 1.94621
thorax -5.42041 -1.81881 1.09954
lowerneck -11.7585 -7.49581 -7.13353
upperneck -1.17506 -9.01295 9.77538
head 2.3217 -4.02654 3.57695
rclavicle 6.71519e-015 -4.74598e-015
rhumerus 75.0254 18.0481 -4.89554
rradius 40.2737
rwrist -51.9169
rhand -42.3423 -1.05246
rfingers 7.12502
rthumb -15.2249 -30.4722
lclavicle 6.71519e-015 -4.74598e-015
lhumerus 62.5143 -20.1453 -0.621172
lradius 32.8035
lwrist 3.85359
lhand -41.5818 10.4258
lfingers 7.12502
lthumb -14.4922 39.8997
rfemur -16.7454 -8.71893 27.881
rtibia 57.7809
rfoot -27.3809 -6.57398
rtoes -3.03672
lfemur -16.7549 2.26731 -12.8184
ltibia 57.8752
lfoot -25.2451 -9.98648
ltoes -6.40602
21
root 1.86186 16.107 0.536106 169.817 -5.32457 -174.476
lowerback 17.3406 -2.4153 3.02416
upperback 3.80578 -3.14418 1.93808
thorax -5.65803 -1.83421 1.06089
lowerneck -11.7139 -7.52552 -7.0725
upperneck -1.34399 -9.04336 9.77933
head 2.26428 -4.04078 3.57067
rclavicle 5.01155e-015 -1.33434e-014
rhumerus 74.9313 17.5114 -4.77138
rradius 40.5
rwrist -52.294
rhand -42.4975 -0.962014
rfingers 7.12502
rthumb -15.3744 -30.3704
lclavicle 5.01155e-015 -1.33434e-014
lhumerus 62.2157 -19.5026 0.119106
lradius 33.0388
lwrist 2.95106
lhand -41.5788 10.487
lfingers 7.12502
lthumb -14.4894 39.9611
rfemur -17.7766 -9.01805 27.9418
rtibia 59.7053
rfoot -28.1771 -6.62811
rtoes -3.02376
lfemur -17.8442 2.34699 -12.7344
ltibia 59.98
lfoot -26.1724 -9.68201
ltoes -6.16645
22
root 1.86234 15.9707 0.550945 169.787 -5.43665 -174.384
lowerback 17.795 -2.45165 3.13492
upperback 3.81532 -3.16647 1.95257
thorax -5.89566 -1.85356 1.04447
lowerneck -11.7174 -7.54499 -7.05064
upperneck -1.476 -9.05536 9.78806
head 2.22591 -4.04426 3.5713
rclavicle 1.05418e-014 2.2531e-014
rhumerus 74.8661 16.9555 -4.95771
rradius 40.5998
rwrist -52.361
rhand -42.4767 -0.973977
rfingers 7.12502
rthumb -15.3544 -30.3839
lclavicle 1.05418e-014 2.2531e-014
lhumerus 61.8628 -18.8393 0.913962
lradius 33.2806
lwrist 2.08924
lhand -41.5588 10.4729
lfingers 7.12502
lthumb -14.4701 39.9484
rfemur -18.8774 -9.25091 28.0443
rtibia 61.7001
rfoot -28.9891 -6.6672
rtoes -2.65027
lfemur -19.0033 2.45285 -12.6267
ltibia 62.1667
lfoot -27.1052 -9.39617
ltoes -6.15304
23
root 1.86112 15.8265 0.567189 169.797 -5.48684 -174.322
lowerback 18.2284 -2.47315 3.21681
upperback 3.81711 -3.17258 1.96673
thorax -6.12858 -1.86403 1.03968
lowerneck -11.7193 -7.54264 -7.00134
upperneck -1.6348 -9.03738 9.76415
head 2.17382 -4.03385 3.56064
rclavicle 3.72884e-014 8.46698e-015
rhumerus 74.8126 16.3958 -5.29403
rradius 40.6632
rwrist -52.2509
rhand -42.3429 -1.06612
rfingers 7.12502
rthumb -15.2254 -30.4859
lclavicle 3.72884e-014 8.46698e-015
lhumerus 61.4841 -18.1421 1.7702
lradius 33.5117
lwrist 1.23788
lhand -41.5428 10.4111
lfingers 7.12502
lthumb -14.4546 39.8877
rfemur -20.0695 -9.41729 28.1434
rtibia 63.7703
rfoot -29.7722 -6.79517
rtoes -2.33088
lfemur -20.2259 2.61466 -12.5442
ltibia 64.4278
lfoot -28.0428 -9.21426
ltoes -6.08745
